<?xml version="1.0" encoding="UTF-8"?>
<svg id="a" data-name="Layer 1" xmlns="http://www.w3.org/2000/svg" width="168.7" height="182.086" viewBox="0 0 168.7 182.086">
  <path d="m168.7,128.863c0,19.04-7.338,34.827-19.536,46.527-9.021,8.653-23.18,8.88-32.812.912-7.159-5.922-17.448-10.709-32.002-10.709s-24.843,4.787-32.002,10.709c-9.631,7.968-23.791,7.741-32.812-.912C7.338,163.69,0,147.903,0,128.863c0-30.37,12.84-75.02,40.13-87.98,4.44-2.1,14.93,14.47,19.78,13.11,7.74-2.16,15.94-3.33,24.44-3.33s16.7,1.17,24.44,3.33c4.85,1.36,15.34-15.21,19.78-13.11,27.29,12.96,40.13,57.61,40.13,87.98Z" fill="#54b331"/>
  <ellipse cx="48.535" cy="114.958" rx="23.507" ry="36.093" fill="#f6f6f6"/>
  <ellipse cx="120.165" cy="114.958" rx="23.507" ry="36.093" fill="#f6f6f6"/>
  <rect x="35.488" y="90.326" width="26.093" height="49.263" rx="13.046" ry="13.046" fill="#54b331"/>
  <rect x="107.119" y="90.326" width="26.093" height="49.263" rx="13.046" ry="13.046" fill="#54b331"/>
  <circle cx="114.617" cy="13.046" r="13.046" fill="#54b331"/>
  <path d="m100.921,25.009c.896.627.86,1.963-.072,2.537-.513.316-1.071.578-1.669.775-5.67,1.88-6.99,9.61-7,9.69-.57,3.98-3.98,6.83-7.89,6.83-.38,0-.77-.02-1.15-.08-4.38-.62-7.41-4.71-6.79-9.08.92-6.49,5.71-18.54,17.79-22.55.008-.003.015-.005.023-.008,1.02-.345,2.025.527,1.936,1.6-.026.316-.039.635-.039.958,0,3.862,1.92,7.269,4.861,9.328Z" fill="#54b331"/>
</svg>